<?xml version="1.0" encoding="utf-8"?>
<!-- Generator: Adobe Illustrator 16.0.0, SVG Export Plug-In . SVG Version: 6.00 Build 0)  -->
<!DOCTYPE svg PUBLIC "-//W3C//DTD SVG 1.1//EN" "http://www.w3.org/Graphics/SVG/1.1/DTD/svg11.dtd">
<svg version="1.1" id="图层_1" xmlns="http://www.w3.org/2000/svg" xmlns:xlink="http://www.w3.org/1999/xlink" x="0px" y="0px"
	 width="200px" height="200px" viewBox="0 0 200 200" enable-background="new 0 0 200 200" xml:space="preserve">
<path fill="#4C2C16" d="M54.18,90.176c0,0,0.508,26.484,13.145,41.563c4.219-1.797,8.477-3.496,12.637-5.117
	c0.02,0,0.039,0,0.039-0.02c0.293-2.07,1.582-4.707,1.895-6.543c0.156-0.859,1.035-0.898,1.563-0.449
	c-0.02-0.176,0.195-0.313,0.352-0.215c0.02,0,0.02,0.02,0.039,0.039c0.137-0.156,0.352-0.254,0.547-0.117
	c0.254,0.195,0.527,0.41,0.781,0.605c1.426-3.809,1.992-7.715,0.918-12.539c-2.773-2.012-4.57-3.828-4.863-4.16
	c-1.777-1.621-12.93-11.934-14.082-17.91c-0.117-0.156-0.215-0.352-0.254-0.566c-0.059-0.371-0.117-0.742-0.176-1.094
	c-1.27,0.332-2.676,0.098-3.887-0.605c-2.207-1.309-3.125-3.867-3.418-6.289c-0.254-2.148-0.215-4.727,1.055-6.602h0.039
	c41.992-5.742,41.719-32.461,41.719-32.461c2.031,21.211,25.391,29.199,37.109,31.875c2.48,4.609,0.469,13.594-5.234,13.926
	c-0.273,0.02-0.527-0.02-0.742-0.098c-0.195,0.781-0.391,1.543-0.586,2.285c-2.461,9.199-9.453,14.063-16.836,20.293
	c-1.406,1.621-2.852,2.91-4.316,3.945c0.273,3.984,1.367,7.52,3.105,10.938c0.469-0.527,0.938-1.055,1.348-1.641
	c0.645-0.879,2.07-0.078,1.582,0.801c0.02,0.02,0.039,0.039,0.039,0.059c0.859,1.934,1.543,3.926,2.363,5.859
	c0,0.02,0.02,0.039,0.02,0.059c10.039,2.129,20.234,6.387,29.727,10.234c0.156,0.059,0.254,0.176,0.332,0.293
	c0.293-0.176,0.703-0.176,0.898,0.176c1.367,2.539,2.539,5.117,3.574,7.715c4.18-5.273,7.09-11.211,8.027-17.52l-2.734-5.625
	l5.645-0.195l2.676-6.719c0,0-16.973-8.906-19.473-15.215c-2.48-6.289-1.992-40.156-1.992-40.156s-0.703-8.613-4.941-18.145
	c-0.254-0.586-0.527-1.172-0.82-1.758c-11.484-31.738-38.77-25.449-38.77-25.449c-19.785-1.738-31.543,7.031-38.418,18.438
	c-1.602,2.324-3.066,4.961-4.375,7.93C54.57,51.133,52.012,67.148,54.18,90.176z"/>
<path fill="#F1E1D4" d="M99.336,128.145c0.234,0.039,0.391,0.176,0.469,0.352c0.547,0.195,1.113,0.391,1.68,0.566
	c0.176,0.059,0.313,0.137,0.41,0.234c0.215,0,0.43,0,0.645-0.02c4.316-2.461,8.809-4.746,12.188-8.418
	c-1.738-3.418-2.832-6.953-3.105-10.938c-9.512,6.66-19.688,1.68-25.527-2.539c1.074,4.824,0.508,8.73-0.918,12.539
	c4.238,3.242,8.32,6.074,13.184,8.027C98.691,128.008,99.023,128.086,99.336,128.145L99.336,128.145z"/>
<path fill="#FBDFCC" d="M111.621,109.922c1.465-1.016,2.91-2.324,4.316-3.945c7.383-6.23,14.375-11.094,16.836-20.293
	c0.195-0.742,0.391-1.523,0.586-2.285c0.215,0.078,0.469,0.117,0.742,0.098c5.684-0.313,7.695-9.316,5.234-13.926
	c-11.738-2.695-35.078-10.664-37.109-31.875c0,0,0.293,26.719-41.699,32.441h-0.039c-1.27,1.875-1.309,4.434-1.055,6.602
	c0.293,2.422,1.211,5,3.418,6.289c1.211,0.703,2.617,0.938,3.887,0.605c0.059,0.371,0.117,0.742,0.176,1.094
	c0.039,0.234,0.117,0.41,0.254,0.566c1.152,5.977,12.305,16.289,14.082,17.91c0.293,0.332,2.07,2.168,4.863,4.16
	C91.934,111.602,102.109,116.582,111.621,109.922L111.621,109.922z"/>
<path fill="#FF6699" d="M101.758,131.875c-1.797,1.211-3.379,2.656-4.668,4.395c-0.234,0.313-1.523,2.246-2.305,3.75
	c-0.117,0.488-0.234,0.996-0.352,1.504c4.883,2.441,9.082,3.145,9.082,3.145s1.895-0.645,4.375-2.305
	c-0.996-4.297-2.715-7.656-5.859-10.781C101.973,131.68,101.875,131.777,101.758,131.875z M102.129,129.609
	c0.059-0.078,0.117-0.156,0.215-0.215c0.059-0.039,0.137-0.078,0.195-0.117c-0.215,0-0.43,0-0.645,0.02
	C102.012,129.375,102.07,129.492,102.129,129.609z"/>
<path fill="#F1F7FA" d="M154.609,144.414c-1.016-2.617-2.188-5.176-3.574-7.715c-0.195-0.352-0.605-0.371-0.898-0.176
	c-0.078-0.117-0.176-0.215-0.332-0.293c-9.492-3.848-19.688-8.105-29.727-10.234c0.117,0.332,0,0.605-0.215,0.781
	c-0.879,6.699-4.414,13.125-10.43,16.465c-0.137,0.078-0.293,0.098-0.43,0.059c-0.41,0.098-0.898-0.059-1.016-0.566
	c-0.02-0.117-0.059-0.254-0.078-0.371c-2.48,1.66-4.375,2.305-4.375,2.305s-4.199-0.684-9.082-3.145
	c-0.02,0.117-0.059,0.234-0.078,0.352c0.313,0.254,0.156,0.742-0.195,0.801c-0.02,0.098-0.039,0.176-0.059,0.273
	c-0.215,0.898-1.387,0.566-1.484-0.195v-0.02c-4.043-2.422-7.324-6.27-9.961-10.117c-0.918-1.348-2.559-3.223-2.695-4.941
	c-0.02-0.332,0-0.684,0.039-1.074c-0.02,0-0.02,0-0.039,0.02c-4.16,1.621-8.418,3.32-12.637,5.117
	c-5.547,2.363-11.074,4.883-16.27,7.598c-0.156,0.078-0.234,0.215-0.273,0.371c-0.098,0.039-0.176,0.098-0.234,0.195
	c-3.477,8.223-4.746,16.367-5.938,25.195v0.078c0.527,0.488,1.074,0.977,1.621,1.465c14.453,12.695,32.559,20.703,52.676,20.703
	c10.078,0,19.551-1.68,28.32-4.941c12.012-4.492,22.695-11.992,31.777-22.363c0-0.039-0.02-0.098-0.02-0.137
	C157.891,154.414,156.523,149.336,154.609,144.414z"/>
<path fill="#FFFFFF" d="M117.715,120.059c-0.02-0.02-0.039-0.039-0.039-0.059c0.508-0.879-0.938-1.68-1.582-0.801
	c-0.43,0.586-0.879,1.133-1.348,1.641c-3.379,3.672-7.871,5.957-12.188,8.418c-0.059,0.039-0.137,0.078-0.195,0.117
	c-0.098,0.059-0.176,0.137-0.215,0.215c-0.039-0.117-0.117-0.234-0.215-0.332s-0.234-0.176-0.41-0.234
	c-0.586-0.176-1.133-0.371-1.68-0.566c-0.098-0.176-0.254-0.293-0.469-0.352c-0.332-0.059-0.645-0.137-0.977-0.195
	c-4.863-1.953-8.945-4.785-13.184-8.027c-0.254-0.195-0.527-0.391-0.781-0.605c-0.176-0.137-0.41-0.059-0.547,0.117
	c-0.02,0-0.02-0.02-0.039-0.039c-0.137-0.098-0.352,0.039-0.352,0.215c-0.527-0.449-1.426-0.41-1.563,0.449
	c-0.313,1.836-1.621,4.473-1.895,6.543c-0.059,0.371-0.078,0.742-0.039,1.074c0.137,1.699,1.777,3.574,2.695,4.941
	c2.637,3.848,5.918,7.695,9.961,10.117v0.02c0.098,0.781,1.27,1.094,1.484,0.195c0.02-0.098,0.039-0.176,0.059-0.273
	c0.352-0.078,0.488-0.547,0.195-0.801c0.02-0.117,0.059-0.234,0.078-0.352c0.117-0.508,0.234-1.016,0.352-1.504
	c0.781-1.504,2.07-3.457,2.305-3.75c1.289-1.758,2.871-3.184,4.668-4.395c0.117-0.078,0.215-0.176,0.293-0.293
	c3.145,3.125,4.844,6.504,5.859,10.781c0.02,0.117,0.059,0.254,0.078,0.371c0.117,0.508,0.586,0.664,1.016,0.566
	c0.137,0.039,0.293,0.02,0.43-0.059c6.016-3.34,9.57-9.766,10.43-16.465c0.215-0.176,0.332-0.449,0.215-0.781
	c0-0.02-0.02-0.039-0.02-0.059C119.258,123.984,118.555,121.992,117.715,120.059L117.715,120.059z"/>
</svg>
