<?xml version="1.0" encoding="UTF-8" standalone="no"?>
<svg width="24px" height="24px" viewBox="0 0 24 24" version="1.1" xmlns="http://www.w3.org/2000/svg" xmlns:xlink="http://www.w3.org/1999/xlink">
    <!-- Generator: Sketch 46.2 (44496) - http://www.bohemiancoding.com/sketch -->
    <title>Group 4</title>
    <desc>Created with Sketch.</desc>
    <defs></defs>
    <g id="Page-1" stroke="none" stroke-width="1" fill="none" fill-rule="evenodd">
        <g id="01-copy-4" transform="translate(-16.000000, -355.000000)" fill="#6AC0FF">
            <g id="Group-4" transform="translate(16.000000, 355.000000)">
                <path d="M12,24 C8.44955046,24 4.45707451,22.9607233 2.26000023,20.5099945 C0.35592414,18.3860909 0,15.0769675 0,12 C0,9.39336343 0.328326267,6.47786646 1.73999977,4.50999451 C3.91752971,1.47451917 7.97921958,0 12,0 C16.025877,0 20.1932167,1.47799729 22.3699989,4.52000427 C23.7766455,6.48576303 24,9.39845998 24,12 C24,15.0758229 23.6428147,18.3763788 21.7400017,20.5 C19.5428598,22.9521049 15.5515941,24 12,24 Z M7,4.5 C6.17157288,4.5 5.5,5.17157288 5.5,6 L5.5,18 C5.5,18.8284271 6.17157288,19.5 7,19.5 L17,19.5 C17.8284271,19.5 18.5,18.8284271 18.5,18 L18.5,6 C18.5,5.17157288 17.8284271,4.5 17,4.5 L7,4.5 Z" id="Combined-Shape"></path>
                <path d="M7,5.5 L17,5.5 C17.2761424,5.5 17.5,5.72385763 17.5,6 L17.5,18 C17.5,18.2761424 17.2761424,18.5 17,18.5 L7,18.5 C6.72385763,18.5 6.5,18.2761424 6.5,18 L6.5,6 C6.5,5.72385763 6.72385763,5.5 7,5.5 Z M8.5,9 L12.5,9 C12.7761424,9 13,8.77614237 13,8.5 C13,8.22385763 12.7761424,8 12.5,8 L8.5,8 C8.22385763,8 8,8.22385763 8,8.5 C8,8.77614237 8.22385763,9 8.5,9 Z M8.4375,12.5 L14.5625,12.5 C14.8386424,12.5 15.0625,12.2761424 15.0625,12 C15.0625,11.7238576 14.8386424,11.5 14.5625,11.5 L8.4375,11.5 C8.16135763,11.5 7.9375,11.7238576 7.9375,12 C7.9375,12.2761424 8.16135763,12.5 8.4375,12.5 Z M8.4375,16 L14.5625,16 C14.8386424,16 15.0625,15.7761424 15.0625,15.5 C15.0625,15.2238576 14.8386424,15 14.5625,15 L8.4375,15 C8.16135763,15 7.9375,15.2238576 7.9375,15.5 C7.9375,15.7761424 8.16135763,16 8.4375,16 Z" id="Combined-Shape" fill-rule="nonzero"></path>
            </g>
        </g>
    </g>
</svg>