<?xml version="1.0" encoding="UTF-8" standalone="no"?>
<svg width="24px" height="24px" viewBox="0 0 24 24" version="1.1" xmlns="http://www.w3.org/2000/svg" xmlns:xlink="http://www.w3.org/1999/xlink">
    <!-- Generator: Sketch 46.2 (44496) - http://www.bohemiancoding.com/sketch -->
    <title>Group 5</title>
    <desc>Created with Sketch.</desc>
    <defs></defs>
    <g id="Page-1" stroke="none" stroke-width="1" fill="none" fill-rule="evenodd">
        <g id="01-copy-4" transform="translate(-16.000000, -505.000000)" fill="#FF7888">
            <g id="Group-5-Copy-6" transform="translate(0.000000, 494.000000)">
                <g id="Group-5" transform="translate(16.000000, 11.000000)">
                    <path d="M13.7488092,4.5825642 C13.6698495,4.53038075 13.5752159,4.5 13.4734865,4.5 L7.5,4.5 C6.67157288,4.5 6,5.17157288 6,6 L6,18 C6,18.8284271 6.67157288,19.5 7.5,19.5 L17.5,19.5 C18.3284271,19.5 19,18.8284271 19,18 L19,10.1318653 C19.0167952,9.98656117 18.9699842,9.83521773 18.8592616,9.7229873 L13.8844219,4.68040185 C13.8438454,4.63927278 13.7979004,4.60665522 13.7488092,4.5825642 Z M17.3172607,9.58386327 L14.4734865,9.58386327 C14.1973442,9.58386327 13.9734865,9.36000564 13.9734865,9.08386327 L13.9734865,6.19455458 L17.3172607,9.58386327 Z M12,24 C8.44955046,24 4.45707451,22.9607233 2.26000023,20.5099945 C0.35592414,18.3860909 0,15.0769675 0,12 C0,9.39336343 0.328326267,6.47786646 1.73999977,4.50999451 C3.91752971,1.47451917 7.97921958,0 12,0 C16.025877,0 20.1932167,1.47799729 22.3699989,4.52000427 C23.7766455,6.48576303 24,9.39845998 24,12 C24,15.0758229 23.6428147,18.3763788 21.7400017,20.5 C19.5428598,22.9521049 15.5515941,24 12,24 Z" id="Combined-Shape"></path>
                    <path d="M12.9734865,5.5 L7.5,5.5 C7.22385763,5.5 7,5.72385763 7,6 L7,18 C7,18.2761424 7.22385763,18.5 7.5,18.5 L17.5,18.5 C17.7761424,18.5 18,18.2761424 18,18 L18,10.5838633 L14.4734865,10.5838633 C13.6450594,10.5838633 12.9734865,9.91229039 12.9734865,9.08386327 L12.9734865,5.5 Z" id="Path"></path>
                </g>
            </g>
        </g>
    </g>
</svg>