<?xml version="1.0" encoding="UTF-8" standalone="no"?>
<svg width="24px" height="24px" viewBox="0 0 24 24" version="1.1" xmlns="http://www.w3.org/2000/svg" xmlns:xlink="http://www.w3.org/1999/xlink">
    <!-- Generator: Sketch 46.2 (44496) - http://www.bohemiancoding.com/sketch -->
    <title>Group 6</title>
    <desc>Created with Sketch.</desc>
    <defs></defs>
    <g id="Page-1" stroke="none" stroke-width="1" fill="none" fill-rule="evenodd">
        <g id="01-copy-4" transform="translate(-16.000000, -401.000000)" fill="#48E4A6">
            <g id="Group-5-Copy-4" transform="translate(0.000000, 390.000000)">
                <g id="Group-6" transform="translate(16.000000, 11.000000)">
                    <path d="M12,24 C8.44955046,24 4.45707451,22.9607233 2.26000023,20.5099945 C0.35592414,18.3860909 0,15.0769675 0,12 C0,9.39336343 0.328326267,6.47786646 1.73999977,4.50999451 C3.91752971,1.47451917 7.97921958,0 12,0 C16.025877,0 20.1932167,1.47799729 22.3699989,4.52000427 C23.7766455,6.48576303 24,9.39845998 24,12 C24,15.0758229 23.6428147,18.3763788 21.7400017,20.5 C19.5428598,22.9521049 15.5515941,24 12,24 Z M7,5.5 C6.17157288,5.5 5.5,6.17157288 5.5,7 L5.5,10 C5.5,10.8284271 6.17157288,11.5 7,11.5 L10,11.5 C10.8284271,11.5 11.5,10.8284271 11.5,10 L11.5,7 C11.5,6.17157288 10.8284271,5.5 10,5.5 L7,5.5 Z M7,12.5 C6.17157288,12.5 5.5,13.1715729 5.5,14 L5.5,17 C5.5,17.8284271 6.17157288,18.5 7,18.5 L10,18.5 C10.8284271,18.5 11.5,17.8284271 11.5,17 L11.5,14 C11.5,13.1715729 10.8284271,12.5 10,12.5 L7,12.5 Z M14,5.5 C13.1715729,5.5 12.5,6.17157288 12.5,7 L12.5,10 C12.5,10.8284271 13.1715729,11.5 14,11.5 L17,11.5 C17.8284271,11.5 18.5,10.8284271 18.5,10 L18.5,7 C18.5,6.17157288 17.8284271,5.5 17,5.5 L14,5.5 Z M14,12.5 C13.1715729,12.5 12.5,13.1715729 12.5,14 L12.5,17 C12.5,17.8284271 13.1715729,18.5 14,18.5 L17,18.5 C17.8284271,18.5 18.5,17.8284271 18.5,17 L18.5,14 C18.5,13.1715729 17.8284271,12.5 17,12.5 L14,12.5 Z" id="Combined-Shape"></path>
                    <path d="M7,13.5 C6.72385763,13.5 6.5,13.7238576 6.5,14 L6.5,17 C6.5,17.2761424 6.72385763,17.5 7,17.5 L10,17.5 C10.2761424,17.5 10.5,17.2761424 10.5,17 L10.5,14 C10.5,13.7238576 10.2761424,13.5 10,13.5 L7,13.5 Z" id="Path"></path>
                    <path d="M14,6.5 C13.7238576,6.5 13.5,6.72385763 13.5,7 L13.5,10 C13.5,10.2761424 13.7238576,10.5 14,10.5 L17,10.5 C17.2761424,10.5 17.5,10.2761424 17.5,10 L17.5,7 C17.5,6.72385763 17.2761424,6.5 17,6.5 L14,6.5 Z" id="Path"></path>
                    <path d="M14,13.5 C13.7238576,13.5 13.5,13.7238576 13.5,14 L13.5,17 C13.5,17.2761424 13.7238576,17.5 14,17.5 L17,17.5 C17.2761424,17.5 17.5,17.2761424 17.5,17 L17.5,14 C17.5,13.7238576 17.2761424,13.5 17,13.5 L14,13.5 Z" id="Rectangle-12-Copy-3" fill-rule="nonzero"></path>
                    <path d="M7,6.5 C6.72385763,6.5 6.5,6.72385763 6.5,7 L6.5,10 C6.5,10.2761424 6.72385763,10.5 7,10.5 L10,10.5 C10.2761424,10.5 10.5,10.2761424 10.5,10 L10.5,7 C10.5,6.72385763 10.2761424,6.5 10,6.5 L7,6.5 Z" id="Rectangle-12" fill-rule="nonzero"></path>
                </g>
            </g>
        </g>
    </g>
</svg>