<?xml version="1.0" encoding="UTF-8" standalone="no"?>
<svg width="24px" height="24px" viewBox="0 0 24 24" version="1.1" xmlns="http://www.w3.org/2000/svg" xmlns:xlink="http://www.w3.org/1999/xlink">
    <!-- Generator: Sketch 46.2 (44496) - http://www.bohemiancoding.com/sketch -->
    <title>Group 2</title>
    <desc>Created with Sketch.</desc>
    <defs></defs>
    <g id="Page-1" stroke="none" stroke-width="1" fill="none" fill-rule="evenodd">
        <g id="01-copy" transform="translate(-16.000000, -185.000000)" fill="#FC7B6A">
            <g id="Group-5-Copy-2" transform="translate(0.000000, 174.000000)">
                <g id="Group-2" transform="translate(16.000000, 11.000000)">
                    <path d="M14.4146471,6.5 C14.2087289,5.91740381 13.6531094,5.5 13,5.5 L11,5.5 C10.3468906,5.5 9.79127106,5.91740381 9.58535285,6.5 L5.77777778,6.5 C5.06223424,6.5 4.5,7.11166142 4.5,7.84615385 L4.5,17.1538462 C4.5,17.8883386 5.06223424,18.5 5.77777778,18.5 L18.2222222,18.5 C18.9377658,18.5 19.5,17.8883386 19.5,17.1538462 L19.5,7.84615385 C19.5,7.11166142 18.9377658,6.5 18.2222222,6.5 L14.4146471,6.5 Z M14.5,7.5 L18.2222222,7.5 C18.3657883,7.5 18.5,7.64601054 18.5,7.84615385 L18.5,17.1538462 C18.5,17.3539895 18.3657883,17.5 18.2222222,17.5 L5.77777778,17.5 C5.63421171,17.5 5.5,17.3539895 5.5,17.1538462 L5.5,7.84615385 C5.5,7.64601054 5.63421171,7.5 5.77777778,7.5 L9.5,7.5 L9.5,11 C9.5,11.8284271 10.1715729,12.5 11,12.5 L13,12.5 C13.8284271,12.5 14.5,11.8284271 14.5,11 L14.5,7.5 Z M12,24 C8.44955046,24 4.45707451,22.9607233 2.26000023,20.5099945 C0.35592414,18.3860909 0,15.0769675 0,12 C0,9.39336343 0.328326267,6.47786646 1.73999977,4.50999451 C3.91752971,1.47451917 7.97921958,0 12,0 C16.025877,0 20.1932167,1.47799729 22.3699989,4.52000427 C23.7766455,6.48576303 24,9.39845998 24,12 C24,15.0758229 23.6428147,18.3763788 21.7400017,20.5 C19.5428598,22.9521049 15.5515941,24 12,24 Z" id="Combined-Shape"></path>
                    <g id="Group" transform="translate(4.000000, 6.000000)" fill-rule="nonzero">
                        <path d="M7,0.5 L9,0.5 C9.27614237,0.5 9.5,0.723857625 9.5,1 L9.5,5 C9.5,5.27614237 9.27614237,5.5 9,5.5 L7,5.5 C6.72385763,5.5 6.5,5.27614237 6.5,5 L6.5,1 C6.5,0.723857625 6.72385763,0.5 7,0.5 Z M8,2.5 C8.27614237,2.5 8.5,2.27614237 8.5,2 C8.5,1.72385763 8.27614237,1.5 8,1.5 C7.72385763,1.5 7.5,1.72385763 7.5,2 C7.5,2.27614237 7.72385763,2.5 8,2.5 Z" id="Combined-Shape"></path>
                    </g>
                </g>
            </g>
        </g>
    </g>
</svg>