<?xml version="1.0" encoding="UTF-8" standalone="no"?>
<svg width="24px" height="24px" viewBox="0 0 24 24" version="1.1" xmlns="http://www.w3.org/2000/svg" xmlns:xlink="http://www.w3.org/1999/xlink">
    <!-- Generator: Sketch 46.2 (44496) - http://www.bohemiancoding.com/sketch -->
    <title>Group 3</title>
    <desc>Created with Sketch.</desc>
    <defs></defs>
    <g id="Page-1" stroke="none" stroke-width="1" fill="none" fill-rule="evenodd">
        <g id="01-copy-4" transform="translate(-16.000000, -459.000000)" fill="#FDB41B">
            <g id="Group-5-Copy-5" transform="translate(0.000000, 448.000000)">
                <g id="Group-3" transform="translate(16.000000, 11.000000)">
                    <path d="M9.88321241,12.1597841 C7.35102628,12.8942814 5.5,15.2309755 5.5,18 C5.5,18.2761424 5.72385763,18.5 6,18.5 C6.27614237,18.5 6.5,18.2761424 6.5,18 C6.5,15.1942914 8.77447625,12.9198151 11.5801849,12.9198151 C12.7240945,12.9198151 13.8090389,13.2983546 14.6933124,13.9851071 C14.9114074,14.1544859 15.225517,14.1149937 15.3948959,13.8968988 C15.5642747,13.6788038 15.5247825,13.3646942 15.3066876,13.1953153 C14.6717365,12.702194 13.9496248,12.3416216 13.1780193,12.1320731 C14.5489399,11.4976471 15.5,10.1098895 15.5,8.5 C15.5,6.290861 13.709139,4.5 11.5,4.5 C9.290861,4.5 7.5,6.290861 7.5,8.5 C7.5,10.1337503 8.47946104,11.5387353 9.88321241,12.1597841 Z M12,24 C8.44955046,24 4.45707451,22.9607233 2.26000023,20.5099945 C0.35592414,18.3860909 0,15.0769675 0,12 C0,9.39336343 0.328326267,6.47786646 1.73999977,4.50999451 C3.91752971,1.47451917 7.97921958,0 12,0 C16.025877,0 20.1932167,1.47799729 22.3699989,4.52000427 C23.7766455,6.48576303 24,9.39845998 24,12 C24,15.0758229 23.6428147,18.3763788 21.7400017,20.5 C19.5428598,22.9521049 15.5515941,24 12,24 Z M13.4119742,15.2719119 C13.2181271,15.0752449 12.9015528,15.0729589 12.7048858,15.266806 C12.5082188,15.4606532 12.5059329,15.7772274 12.69978,15.9738944 L15.0839609,18.3927576 C15.2788417,18.5904734 15.597481,18.5915736 15.7937226,18.3952085 L19.8329456,14.3534421 C20.0281463,14.1581185 20.0280466,13.841536 19.8327231,13.6463354 C19.6373995,13.4511347 19.320817,13.4512343 19.1256163,13.6465579 L15.4425089,17.3319845 L13.4119742,15.2719119 Z" id="Combined-Shape"></path>
                    <path d="M11.5,11.5 C13.1568542,11.5 14.5,10.1568542 14.5,8.5 C14.5,6.84314575 13.1568542,5.5 11.5,5.5 C9.84314575,5.5 8.5,6.84314575 8.5,8.5 C8.5,10.1568542 9.84314575,11.5 11.5,11.5 Z" id="Oval-4" fill-rule="nonzero"></path>
                </g>
            </g>
        </g>
    </g>
</svg>