<?xml version="1.0" encoding="UTF-8" standalone="no"?>
<svg width="24px" height="25px" viewBox="0 0 24 25" version="1.1" xmlns="http://www.w3.org/2000/svg" xmlns:xlink="http://www.w3.org/1999/xlink">
    <!-- Generator: Sketch 46.2 (44496) - http://www.bohemiancoding.com/sketch -->
    <title>icon_通用设置</title>
    <desc>Created with Sketch.</desc>
    <defs></defs>
    <g id="Page-1" stroke="none" stroke-width="1" fill="none" fill-rule="evenodd">
        <g id="01-copy-4" transform="translate(-16.000000, -562.000000)" fill="#CB94FF">
            <g id="Group-5-Copy-7" transform="translate(0.000000, 552.000000)">
                <g id="Group-9" transform="translate(10.000000, 5.000000)">
                    <g id="设置" transform="translate(0.082503, 0.252492)">
                        <g id="icon_通用设置">
                            <g id="Group" transform="translate(17.782816, 17.912820) rotate(22.500000) translate(-17.782816, -17.912820) translate(4.782816, 4.912820)">
                                <path d="M17.6041308,23.8083182 C14.3239431,25.1670164 10.2376623,25.7347043 7.26997704,24.3113101 C4.69805738,23.0777373 3.10287965,20.1567122 1.92537518,17.313965 C0.92785855,14.9057468 0.115480083,12.0865338 0.666624345,9.7282331 C1.51677357,6.09051493 4.70501164,3.17389543 8.41972838,1.63520938 C12.1391537,0.0945729571 16.5548787,-0.134707473 19.7300889,1.84272203 C21.7819242,3.12054597 23.1029177,5.726053 24.098484,8.12956258 C25.2755504,10.9712524 26.2086223,14.1572574 25.2633269,16.8474025 C24.1718124,19.9536618 20.8853758,22.4491819 17.6041308,23.8083182 Z M11.9199743,20.6036426 L13.0472332,19.4842663 C13.0895595,19.4850998 13.1319356,19.4855171 13.1743575,19.4855171 C13.2388305,19.4855171 13.3031969,19.4845533 13.3674423,19.4826292 L14.448844,20.5564688 C14.5715732,20.6783398 14.7485711,20.7281275 14.9168377,20.6881105 C15.8093731,20.4758489 16.654711,20.1099954 17.4199192,19.609067 C17.5597533,19.5175274 17.6446036,19.362174 17.6460462,19.1950484 L17.6595196,17.6341872 C17.7177536,17.5764592 17.774896,17.5176181 17.8309133,17.4576983 L19.3740697,17.4440969 C19.5428266,17.4426095 19.699446,17.3560923 19.7905497,17.2140316 C20.2857731,16.441815 20.647418,15.5889598 20.8572812,14.6886569 C20.895945,14.5227911 20.8475207,14.3486517 20.7287814,14.2265562 C19.9607103,13.427632 19.5766747,13.0258891 19.5766747,13.0213274 C19.5766747,12.9772794 19.5762376,12.9332805 19.5753645,12.8893351 L20.7757781,11.6549908 C20.8909233,11.5365909 20.9401727,11.3689687 20.9073733,11.207101 C20.7301356,10.332418 20.4105875,9.49847341 19.9639617,8.73477555 C19.8750799,8.58279422 19.712815,8.48876087 19.5367586,8.48720911 L17.7219555,8.47121346 C17.7016085,8.45048373 17.6811234,8.42989245 17.6605016,8.40944114 L17.6437536,6.46923332 C17.6423104,6.30204292 17.5573954,6.14663848 17.4174736,6.05511457 C16.7181763,5.59769865 15.9516356,5.25282911 15.1430612,5.03502632 C14.9709535,4.98866631 14.7871804,5.03743277 14.6607026,5.16302605 L13.2562513,6.55765641 C13.228973,6.55731062 13.2016747,6.55713759 13.1595675,6.5571545 L11.7027379,5.11051223 C11.5799202,4.9885533 11.4027628,4.93878787 11.234403,4.97895183 C10.4521738,5.16556058 9.70590296,5.47023842 9.01771234,5.88097602 C8.86786383,5.97041115 8.77548591,6.13150257 8.7739796,6.30600458 L8.75639777,8.34280992 C8.71238719,8.38518837 8.66897313,8.4281946 8.62616963,8.47181457 L6.61851288,8.48951003 C6.44239375,8.49106234 6.28008105,8.58516151 6.19122112,8.73722817 C5.78523399,9.43199697 5.48420035,10.1852182 5.29992865,10.9745816 C5.26119825,11.1404908 5.30961239,11.314703 5.4283917,11.4368397 L6.77504393,12.8215563 C6.77304284,12.8880229 6.77204039,12.9546184 6.77204039,13.0213274 C6.77204039,13.0511697 6.77224101,13.0809896 6.77264191,13.1107858 L5.48067307,14.4392732 C5.35834789,14.565056 5.31090358,14.7457529 5.35565857,14.9154048 C5.57096799,15.731574 5.91201254,16.5054505 6.36449384,17.2115778 C6.45558081,17.3537251 6.61225027,17.4403068 6.78107112,17.4417948 L8.5172401,17.4570974 C8.59514313,17.5404489 8.67521975,17.6217104 8.75737947,17.7007899 L8.77168814,19.3584091 C8.77319391,19.5328475 8.86550558,19.6938901 9.01526751,19.7833461 C9.77218984,20.2354722 10.5989922,20.5590229 11.4663593,20.7384808 C11.6306094,20.7724641 11.8009567,20.7218279 11.9199743,20.6036426 Z" id="Combined-Shape"></path>
                                <path d="M12.4965608,18.6218104 L11.4102964,19.7004788 C10.8371088,19.5586338 10.2862997,19.3439606 9.76917033,19.0624113 L9.75548472,17.4769722 C9.75427241,17.3365298 9.69404849,17.2030728 9.58954276,17.1092428 C9.42295312,16.9596709 9.26556125,16.7998419 9.11834157,16.6307406 C9.02439213,16.5228272 8.88871313,16.4603327 8.74563904,16.4590717 L7.06649025,16.4442717 C6.78610868,15.9680913 6.5619122,15.4598952 6.39920099,14.9291221 L7.63716443,13.6561666 C7.73358473,13.5570209 7.78463312,13.4223669 7.77817295,13.2842184 C7.77408897,13.1968837 7.77204039,13.1092384 7.77204039,13.0213274 C7.77204039,12.9005089 7.77590966,12.7801967 7.78361325,12.6605077 C7.79269239,12.5194471 7.74164022,12.3811344 7.6430914,12.2798 L6.34016924,10.9400496 C6.47877949,10.4343088 6.67271112,9.94731536 6.91780448,9.48691092 L8.84718304,9.4699054 C8.98581812,9.46868347 9.11772226,9.4099542 9.21139302,9.30774379 C9.3310895,9.17713498 9.45700178,9.05246618 9.58864396,8.93421911 C9.69310025,8.84039166 9.75329159,8.70696752 9.75450357,8.56656368 L9.77146072,6.60212496 C10.2243102,6.3557952 10.7031186,6.16065428 11.2002521,6.02081774 L12.6051403,7.41588194 C12.7032982,7.51335341 12.8374511,7.56580368 12.9756907,7.56075744 C13.0417468,7.55834616 13.1079756,7.55713759 13.1743575,7.55713759 C13.2606495,7.55713759 13.3466815,7.55917986 13.4324103,7.56325135 C13.5724922,7.5699042 13.7089288,7.51742193 13.8084406,7.41860598 L15.1561677,6.08030324 C15.6779521,6.24430375 16.177678,6.4697812 16.6461528,6.75149231 L16.6623573,8.62873514 C16.663546,8.76644699 16.7214826,8.89757107 16.8224994,8.99117434 C16.9314669,9.09214476 17.0363348,9.19757996 17.1368175,9.30719329 C17.2304861,9.40937345 17.36237,9.46808292 17.5009814,9.46930464 L19.237588,9.48461107 C19.5173087,10.0095915 19.7303858,10.5689676 19.870829,11.1511793 L18.7094875,12.3453471 C18.6122479,12.4453353 18.5611918,12.5813947 18.5686482,12.7206699 C18.5739925,12.8204951 18.5766747,12.9207367 18.5766747,13.0213274 C18.5766747,13.0887104 18.5754711,13.1559381 18.5730698,13.2229905 C18.5681882,13.3593033 18.6192077,13.4916933 18.7143038,13.5894774 L19.8170791,14.7234236 C19.6511955,15.329473 19.4059439,15.9083784 19.0887716,16.4465727 L17.6025531,16.4596722 C17.4595023,16.460933 17.3238429,16.5234076 17.2298943,16.6312909 C17.1013451,16.778907 16.9650322,16.9194676 16.8216003,17.0523133 C16.7205339,17.1459204 16.662565,17.2770779 16.6613759,17.4148287 L16.6484444,18.9129118 C16.1182226,19.2320334 15.5481519,19.4789718 14.9514982,19.6463305 L13.91589,18.6179641 C13.8141246,18.5169103 13.6738656,18.4644203 13.5307593,18.4738341 C13.4125367,18.481611 13.2936978,18.4855171 13.1743575,18.4855171 C13.0746311,18.4855171 12.975253,18.4827895 12.8762901,18.4773544 C12.7349735,18.4695934 12.5969878,18.5220857 12.4965608,18.6218104 Z M13.0430237,17.1040525 C15.3532959,17.1040525 17.224016,15.2137221 17.224016,12.8844733 C17.224016,10.5552244 15.3532959,8.66489402 13.0430237,8.66489402 C10.7327516,8.66489402 8.86203148,10.5552244 8.86203148,12.8844733 C8.86203148,15.2137221 10.7327516,17.1040525 13.0430237,17.1040525 Z" id="Combined-Shape"></path>
                                <path d="M13.0430237,16.1040525 C14.7986634,16.1040525 16.224016,14.6637582 16.224016,12.8844733 C16.224016,11.1051883 14.7986634,9.66489402 13.0430237,9.66489402 C11.2873841,9.66489402 9.86203148,11.1051883 9.86203148,12.8844733 C9.86203148,14.6637582 11.2873841,16.1040525 13.0430237,16.1040525 Z" id="Path"></path>
                            </g>
                        </g>
                    </g>
                </g>
            </g>
        </g>
    </g>
</svg>