<?xml version="1.0" encoding="utf-8"?>
<!-- Generator: Adobe Illustrator 19.0.0, SVG Export Plug-In . SVG Version: 6.00 Build 0)  -->
<svg version="1.1" id="图层_1" xmlns="http://www.w3.org/2000/svg" xmlns:xlink="http://www.w3.org/1999/xlink" x="0px" y="0px"
	 viewBox="-197 320.9 200 200" style="enable-background:new -197 320.9 200 200;" xml:space="preserve">
<style type="text/css">
	.st0{opacity:0.47;fill:#FFB540;}
	.st1{fill:#FFB540;}
</style>
<path class="st0" d="M-153.4,425.2c0,25.7,20.7,45.7,45.7,45.7c25.7,0,45.7-20.7,45.7-45.7c0-25.7-20.7-45.7-45.7-45.7
	S-153.4,400.2-153.4,425.2z"/>
<path class="st1" d="M-98.4,477.3c-32.9,0-60-27.1-60-60s27.1-60,60-60s60,27.1,60,60S-64.9,477.3-98.4,477.3z M-98.4,367.3
	c-27.1,0-50,22.1-50,50c0,27.1,22.1,50,50,50c27.1,0,50-22.1,50-50S-70.6,367.3-98.4,367.3z M-79.1,495.9H-117c-2.9,0-5-2.1-5-5
	c0-2.9,2.1-5.7,5-5.7h37.9c2.9,0,5,2.1,5,5C-74.1,493-76.3,495.9-79.1,495.9z M-90.6,515.9h-15.7c-2.9,0-5-2.1-5-5c0-2.9,2.1-5,5-5
	h15.7c2.9,0,5,2.1,5,5C-85.6,513-87.7,515.9-90.6,515.9z M-98.4,349.5c-2.9,0-5-2.1-5-5v-12.9c0-2.9,2.1-5,5-5c2.9,0,5,2.1,5,5v12.1
	C-93.4,347.3-95.6,349.5-98.4,349.5z M-144.9,365.9c-1.4,0-2.9-0.7-4.3-2.1l-7.1-10c-1.4-2.1-1.4-5.7,1.4-7.1
	c2.1-1.4,5.7-1.4,7.1,1.4l7.1,10c1.4,2.1,1.4,5.7-1.4,7.1C-142.7,365.2-143.4,365.9-144.9,365.9z M-172.7,405.9h-1.4l-12.1-3.6
	c-2.9-0.7-4.3-3.6-3.6-6.4c0.7-2.9,3.6-4.3,6.4-3.6l12.1,3.6c2.9,0.7,4.3,3.6,3.6,6.4C-168.4,404.5-170.6,405.9-172.7,405.9z
	 M-21.3,403c-2.1,0-4.3-1.4-5-3.6c-0.7-2.9,0.7-5.7,3.6-6.4l12.1-3.6c2.9-0.7,5.7,0.7,6.4,3.6c0.7,2.9-0.7,5.7-3.6,6.4l-12.1,3.6
	H-21.3L-21.3,403z M-50.6,363.7c-0.7,0-2.1,0-2.9-0.7c-2.1-1.4-2.9-5-1.4-7.1l7.1-10c1.4-2.1,5-2.9,7.1-1.4c2.1,1.4,2.9,5,1.4,7.1
	l-7.1,10C-47.7,363-49.1,363.7-50.6,363.7L-50.6,363.7z"/>
</svg>
